# xmcd
#
# Track frame offsets:
#	183
#	8133
#	25163
#	35858
#	40233
#	44845
#	48683
#	67683
#	79045
#	106683
#	112778
#	160358
#	162258
#	173058
#	183300
#	211158
#	217770
#	258108
#	261208
#	277670
#	307345
#	315003
#
# Disc length: 4348 seconds
#
# Revision: 0
# Processed by: cddbd v1.5.2PL0 Copyright (c) Steve Scherf et al.
# Submitted via: dBpowerAMP V4.0
#
DISCID=1b10fa16
DTITLE=gioacchino rossini - l' italiana in algeri [CD2)
DYEAR=1900
DGENRE=Opera
TTITLE0=atto secondo:introduzione:uno stupido,uno stolto
TTITLE1=recitativo:haly,che te ne par? 
TTITLE2=cavatina:oh, come il cor di giubilo
TTITLE3=recitativo:ah, se da solo a sola
TTITLE4=coro,recitativo e aria:viva il grande kaimakan
TTITLE5=recitativo:kaimakan!io n capisco niente
TTITLE6=aria:ho un gran peso sulla testa
TTITLE7=recitativo:(buon segno pe l bey)
TTITLE8=cavatina:per lui che adoro
TTITLE9=recitativo:io non resisto più
TTITLE10=quintetto:ti presento di mia man
TTITLE11=recitativo dopo il quintetto:con tutta la sua boria
TTITLE12=aria:le femmine d' italia
TTITLE13=recitativo:e tu speri di togliere Isabella
TTITLE14=terzetto:pappataci!che mai sento!
TTITLE15=recitativo:eh può la tua padrona
TTITLE16=coro-recitativo e rondò:pronti abbaim e ferri e mani
TTITLE17=recitativo:che bel core che ha costei
TTITLE18=finale secondo:dei pappataci s' avanza il coro
TTITLE19=non sei tu che il grado eletto
TTITLE20=son l' aure seconde,son placide l' onde
TTITLE21=mio signore.mio marito
EXTD=
EXTT0=
EXTT1=
EXTT2=
EXTT3=
EXTT4=
EXTT5=
EXTT6=
EXTT7=
EXTT8=
EXTT9=
EXTT10=
EXTT11=
EXTT12=
EXTT13=
EXTT14=
EXTT15=
EXTT16=
EXTT17=
EXTT18=
EXTT19=
EXTT20=
EXTT21=
PLAYORDER=
